/* XPM */
static char * Bookshelf_xpm[] = {
"64 64 465 2",
"  	c #B38C51",
". 	c #9F844D",
"+ 	c #9B7742",
"@ 	c #7D623E",
"# 	c #7C623E",
"$ 	c #9E834D",
"% 	c #9E834C",
"& 	c #9A7642",
"* 	c #9A7641",
"= 	c #7B613E",
"- 	c #9E834F",
"; 	c #9E834E",
"> 	c #9A7744",
", 	c #9A7643",
"' 	c #B28B50",
") 	c #362A17",
"! 	c #312615",
"~ 	c #302515",
"{ 	c #312515",
"] 	c #392C16",
"^ 	c #392D16",
"/ 	c #382C16",
"( 	c #382B16",
"_ 	c #3A2D17",
": 	c #392D17",
"< 	c #2D2313",
"[ 	c #2C2313",
"} 	c #2C241B",
"| 	c #355B8C",
"1 	c #355C8D",
"2 	c #2F4F7A",
"3 	c #2F4F79",
"4 	c #2F4E78",
"5 	c #31271A",
"6 	c #322715",
"7 	c #2C2213",
"8 	c #362A15",
"9 	c #271E11",
"0 	c #272019",
"a 	c #315A8D",
"b 	c #315B8E",
"c 	c #2A4E7A",
"d 	c #2A4E79",
"e 	c #2C2319",
"f 	c #2D2213",
"g 	c #392A15",
"h 	c #3A2E15",
"i 	c #3A2F15",
"j 	c #392D15",
"k 	c #382D15",
"l 	c #281F11",
"m 	c #281E11",
"n 	c #282019",
"o 	c #315B8D",
"p 	c #3B2E17",
"q 	c #41311A",
"r 	c #43301A",
"s 	c #8F1211",
"t 	c #901211",
"u 	c #44351A",
"v 	c #A6990B",
"w 	c #A79A0A",
"x 	c #A69A0A",
"y 	c #897E08",
"z 	c #887D08",
"A 	c #877C09",
"B 	c #43331A",
"C 	c #403222",
"D 	c #3162A2",
"E 	c #3163A3",
"F 	c #3163A2",
"G 	c #2A4E7B",
"H 	c #362B1A",
"I 	c #43311A",
"J 	c #911111",
"K 	c #A89B0A",
"L 	c #8A7F08",
"M 	c #413222",
"N 	c #B18B50",
"O 	c #3D2D17",
"P 	c #42311A",
"Q 	c #45311A",
"R 	c #911211",
"S 	c #921111",
"T 	c #42341A",
"U 	c #45381A",
"V 	c #A79A1A",
"W 	c #A89B1A",
"X 	c #8A7F13",
"Y 	c #897E13",
"Z 	c #887D13",
"` 	c #45331A",
" .	c #433222",
"..	c #352F1E",
"+.	c #362E19",
"@.	c #3A311B",
"#.	c #901713",
"$.	c #773008",
"%.	c #763007",
"&.	c #783008",
"*.	c #BB1716",
"=.	c #BB1616",
"-.	c #748C11",
";.	c #748D11",
">.	c #768E1E",
",.	c #B4B4B2",
"'.	c #B5B5B4",
").	c #B4B4B3",
"!.	c #8A8A89",
"~.	c #898988",
"{.	c #898887",
"].	c #901919",
"^.	c #8F161C",
"/.	c #3462A2",
"(.	c #2A507A",
"_.	c #138C6B",
":.	c #128D6A",
"<.	c #1B8D6A",
"[.	c #9A7843",
"}.	c #9B7642",
"|.	c #911713",
"1.	c #773007",
"2.	c #793007",
"3.	c #BC1616",
"4.	c #758E11",
"5.	c #768F1E",
"6.	c #B4B4B4",
"7.	c #B5B5B5",
"8.	c #8A8A8A",
"9.	c #898989",
"0.	c #898888",
"a.	c #911919",
"b.	c #90151C",
"c.	c #128D6B",
"d.	c #118E6B",
"e.	c #1B8E6A",
"f.	c #9A7743",
"g.	c #9C7843",
"h.	c #9C7742",
"i.	c #921713",
"j.	c #9B7844",
"k.	c #CBA56B",
"l.	c #CBA46B",
"m.	c #BC1F1A",
"n.	c #783007",
"o.	c #90151B",
"p.	c #3562A1",
"q.	c #3162A1",
"r.	c #2D241D",
"s.	c #2F2713",
"t.	c #768E11",
"u.	c #897D13",
"v.	c #911811",
"w.	c #218E6B",
"x.	c #CAA56B",
"y.	c #CCA66C",
"z.	c #CCA56B",
"A.	c #2C241D",
"B.	c #2E2713",
"C.	c #A79B0A",
"D.	c #897D08",
"E.	c #CBA66C",
"F.	c #90161C",
"G.	c #2E291D",
"H.	c #302B13",
"I.	c #897F08",
"J.	c #2A4F7B",
"K.	c #CAA56C",
"L.	c #B38C52",
"M.	c #B48B51",
"N.	c #BC1D18",
"O.	c #642805",
"P.	c #632805",
"Q.	c #662805",
"R.	c #792F07",
"S.	c #773116",
"T.	c #3362A2",
"U.	c #3364A2",
"V.	c #748C1C",
"W.	c #5F730D",
"X.	c #5E730D",
"Y.	c #60730D",
"Z.	c #758D11",
"`.	c #773307",
" +	c #315C8D",
".+	c #128D6C",
"++	c #1E8E6B",
"@+	c #B28C52",
"#+	c #B38B50",
"$+	c #652805",
"%+	c #763116",
"&+	c #748D1C",
"*+	c #5E720D",
"=+	c #315C8E",
"-+	c #B28C51",
";+	c #BB1D18",
">+	c #652806",
",+	c #BA1616",
"'+	c #3362A1",
")+	c #3364A1",
"!+	c #5E710D",
"~+	c #5F720D",
"{+	c #1E8D6A",
"]+	c #B18C51",
"^+	c #921914",
"/+	c #44311A",
"(+	c #763110",
"_+	c #2D4E7A",
":+	c #2C4F7A",
"<+	c #5E7214",
"[+	c #382E15",
"}+	c #372C15",
"|+	c #392F15",
"1+	c #0D6B52",
"2+	c #0C6C51",
"3+	c #186C50",
"4+	c #9E844D",
"5+	c #2D4E79",
"6+	c #2B4F79",
"7+	c #5D7214",
"8+	c #0D6B51",
"9+	c #0C6B50",
"0+	c #186B50",
"a+	c #921F16",
"b+	c #911914",
"c+	c #662C0B",
"d+	c #652D0B",
"e+	c #652D0C",
"f+	c #46351D",
"g+	c #45351D",
"h+	c #47341D",
"i+	c #911D16",
"j+	c #921C16",
"k+	c #921D16",
"l+	c #79340E",
"m+	c #79350E",
"n+	c #783515",
"o+	c #345079",
"p+	c #32507A",
"q+	c #345179",
"r+	c #607218",
"s+	c #607312",
"t+	c #607212",
"u+	c #3C3017",
"v+	c #3D3017",
"w+	c #897D0C",
"x+	c #8A7E0C",
"y+	c #8A7F0C",
"z+	c #778E15",
"A+	c #778D15",
"B+	c #78370D",
"C+	c #79340D",
"D+	c #783414",
"E+	c #335079",
"F+	c #31507A",
"G+	c #365C8D",
"H+	c #1B6B51",
"I+	c #1B6C50",
"J+	c #226C50",
"K+	c #B38B51",
"L+	c #BB9761",
"M+	c #CBA56C",
"N+	c #BB9861",
"O+	c #B28B51",
"P+	c #B28C50",
"Q+	c #BB9762",
"R+	c #B28C53",
"S+	c #B28B52",
"T+	c #B18B51",
"U+	c #9B7842",
"V+	c #BC9862",
"W+	c #A0844D",
"X+	c #A0854E",
"Y+	c #7E643F",
"Z+	c #7E633E",
"`+	c #7D633E",
" @	c #9A7742",
".@	c #9D834C",
"+@	c #9E844C",
"@@	c #9A7741",
"#@	c #3E3019",
"$@	c #392E16",
"%@	c #5F7210",
"&@	c #57680C",
"*@	c #56680C",
"=@	c #3A2E16",
"-@	c #2F2414",
";@	c #342817",
">@	c #556809",
",@	c #556709",
"'@	c #402D17",
")@	c #3B2A15",
"!@	c #27201B",
"~@	c #27201C",
"{@	c #27211C",
"]@	c #372D1A",
"^@	c #3A2C15",
"/@	c #362C15",
"(@	c #362B1E",
"_@	c #2D4F78",
":@	c #748D17",
"<@	c #5F710D",
"[@	c #8F1711",
"}@	c #41331A",
"|@	c #5D710D",
"1@	c #54670A",
"2@	c #41321A",
"3@	c #362C1E",
"4@	c #2C5079",
"5@	c #901611",
"6@	c #42331A",
"7@	c #BC2622",
"8@	c #BC2121",
"9@	c #BB2121",
"0@	c #921919",
"a@	c #392C17",
"b@	c #362C17",
"c@	c #362D20",
"d@	c #47301A",
"e@	c #55680A",
"f@	c #41351D",
"g@	c #41341D",
"h@	c #40341D",
"i@	c #3A2F19",
"j@	c #9C7946",
"k@	c #B5B3B3",
"l@	c #B5B4B4",
"m@	c #8A8989",
"n@	c #888887",
"o@	c #166B51",
"p@	c #0E6A4F",
"q@	c #0F6A52",
"r@	c #BA1716",
"s@	c #332213",
"t@	c #5D7212",
"u@	c #168D69",
"v@	c #138D6A",
"w@	c #0E6B50",
"x@	c #156A4F",
"y@	c #7C633F",
"z@	c #9B7846",
"A@	c #888988",
"B@	c #156C51",
"C@	c #5D7313",
"D@	c #158E6A",
"E@	c #146B50",
"F@	c #7B623E",
"G@	c #9C7947",
"H@	c #748C19",
"I@	c #748D13",
"J@	c #5E720F",
"K@	c #5E710F",
"L@	c #5F710F",
"M@	c #901711",
"N@	c #362213",
"O@	c #302213",
"P@	c #322713",
"Q@	c #208E6C",
"R@	c #1E8F6D",
"S@	c #1E8E6C",
"T@	c #156C52",
"U@	c #7D643F",
"V@	c #BC2824",
"W@	c #901C1A",
"X@	c #166A4F",
"Y@	c #2B4E79",
"Z@	c #4A4B4A",
"`@	c #4A4B48",
" #	c #40403F",
".#	c #41403E",
"+#	c #77300A",
"@#	c #901111",
"##	c #901911",
"$#	c #60731B",
"%#	c #B3B4B3",
"&#	c #B3B4B4",
"*#	c #901614",
"=#	c #49494A",
"-#	c #494949",
";#	c #3F3F3F",
">#	c #403F3F",
",#	c #76300A",
"'#	c #911911",
")#	c #768D11",
"!#	c #60731C",
"~#	c #CBA66D",
"{#	c #901613",
"]#	c #2B4E7A",
"^#	c #931111",
"/#	c #77310B",
"(#	c #136A4F",
"_#	c #49494B",
":#	c #382A15",
"<#	c #BB1D16",
"[#	c #778D11",
"}#	c #206C51",
"|#	c #76320B",
"1#	c #362A16",
"2#	c #176A4F",
"3#	c #126B50",
"4#	c #126B52",
"5#	c #494A4A",
"6#	c #494A48",
"7#	c #40403E",
"8#	c #372B17",
"9#	c #372B16",
"0#	c #3A2B16",
"a#	c #158D6A",
"b#	c #118D6A",
"c#	c #9F834D",
"d#	c #921813",
"e#	c #773109",
"f#	c #685433",
"g#	c #685434",
"h#	c #685436",
"i#	c #2C4E7A",
"j#	c #325B8D",
"k#	c #5D7118",
"l#	c #5E7110",
"m#	c #685432",
"n#	c #695332",
"o#	c #773009",
"p#	c #782F07",
"q#	c #911611",
"r#	c #60720D",
"s#	c #55680D",
"t#	c #106C50",
"u#	c #294F79",
"v#	c #2A4F79",
"w#	c #305079",
"x#	c #9F834C",
"y#	c #911813",
"z#	c #695433",
"A#	c #685435",
"B#	c #2C4E79",
"C#	c #5D7216",
"D#	c #5E720E",
"E#	c #695533",
"F#	c #54680D",
"G#	c #106B4F",
"H#	c #304F79",
"I#	c #921F17",
"J#	c #921A15",
"K#	c #911B15",
"L#	c #78350E",
"M#	c #6C5634",
"N#	c #6C5635",
"O#	c #6B5636",
"P#	c #33517A",
"Q#	c #385D8D",
"R#	c #385D8E",
"S#	c #395D8D",
"T#	c #60721A",
"U#	c #607210",
"V#	c #607211",
"W#	c #6B5633",
"X#	c #6B5534",
"Y#	c #6B5533",
"Z#	c #911E15",
"`#	c #627212",
" $	c #58690F",
".$	c #576912",
"+$	c #1D6C4F",
"@$	c #365179",
"#$	c #CBA56D",
"        . . . . . . . . + + + + + + + + @ # # @ + + + + + + + + + + + + . . . . . . . . . . . . . . . . + + + + . . . .         ",
"        . . . . . . . . + + + + + + + + @ # # @ + + + + + + + + + + + + . . . . . . . . . . . . . . . . + + + + . . . .         ",
"        . . . . . . . . + + + + + + + + @ # # @ + + + + + + + + + + + + . . . . . . . . . . . . . . . . + + + + . . . .         ",
"        $ % % % % % % % & & & & & & & * # = = # * & & & & & & & & & & & % % % % % % % % % % % % - - - ; > , , > % % % $         ",
"      ' ) ! ! ! ! ! ! ! ~ ~ ~ { ] ^ ^ ^ / / / ( { ~ ~ ~ ~ ~ ~ ~ ~ ~ ~ { _ _ _ _ _ _ _ : < [ [ } | 1 1 1 2 3 3 4 5 ! ! ) '       ",
"      ' 6 7 7 7 7 7 7 7 7 7 7 7 8 8 8 8 8 8 8 8 7 7 7 7 7 7 7 7 7 7 7 7 8 8 8 8 8 8 8 8 9 9 9 0 a b b b c c c d e 7 7 6 '       ",
"      ' 6 7 7 7 7 7 7 7 7 7 7 7 8 8 8 8 8 8 8 8 7 7 7 7 7 7 7 7 7 7 7 7 8 8 8 8 8 8 8 8 9 9 9 0 a b b b c c c d e 7 7 6 '       ",
"      ' 6 7 7 7 7 7 7 7 7 7 7 f g g g g g g g g f 7 7 7 7 7 7 7 7 7 7 < h i i i j j j k l m m n o b b b c c c d e 7 7 6 '       ",
"      ' p 8 8 8 q q q q q q q r s t t t t t t s r q q q q q q q q q q u v w w x y z z A B q q C D E E F G c c d H 8 8 p '       ",
"      ' p 8 8 8 q q q q q q q I t J J J J J J t I q q q q q q q q q q u w K K K L y y z B q q M D E E F G c c d H 8 8 p '       ",
"      ' p 8 8 8 q q q q q q q I t J J J J J J t I q q q q q q q q q q u w K K K L y y z B q q M D E E F G c c d H 8 8 p '       ",
"      N O g g g P P P P P P P Q R S S S J J J t I q q q q q q q T T T U V W W W X Y Y Z ` I I  .D E E F G c c d ..+.+.@.N       ",
"+ + + + #.t t t $.%.%.%.%.%.%.&.*.=.=.=.S J J t I q q q q q q T -.;.;.>.,.'.'.).!.~.~.{.].t t ^./.E E F G c c (._.:.:.<.[.+ + + ",
"+ + + }.|.J J R 1.1.1.1.1.1.1.2.*.3.3.=.S J J t I q q q q q q T ;.4.4.5.6.7.7.6.8.9.9.0.a.J J b./.E E F G c c (.c.d.d.e.f.+ + + ",
"+ + + }.|.J J R 1.1.1.1.1.1.1.2.*.3.3.=.S J J t I q q q q q q T ;.4.4.5.6.7.7.6.8.9.9.0.a.J J b./.E E F G c c (.c.d.d.e.f.+ + + ",
"g.g.g.h.i.S S R 1.1.1.1.1.1.1.2.*.3.3.=.S J J t  .M M M q q q T ;.4.4.5.,.'.'.).!.~.~.{.a.J J b./.E E F G c c (.c.d.d.e.j.g.g.g.",
"k.k.k.l.m.=.=.*.n.1.1.1.1.1.1.2.*.3.3.=.S J J o.p.D D q.r.7 7 s.;.4.4.t.W W W W X Y Y u.v.J J b./.E E F G c c (.c.d.d.w.x.k.k.k.",
"y.y.y.z.m.3.3.*.2.1.1.1.1.1.1.2.*.3.3.=.S J J b./.E E D A.7 7 B.;.4.4.t.C.K K K L y y D.v.J J b./.E E F G c c (.c.d.d.w.E.y.y.y.",
"y.y.y.z.m.3.3.*.2.1.1.1.1.1.1.2.*.3.3.=.S J J b./.E E D A.7 7 B.;.4.4.t.C.K K K L y y D.v.J J b./.E E F G c c (.c.d.d.w.E.y.y.y.",
"y.y.y.l.m.3.3.*.2.1.1.1.1.1.1.n.*.3.3.=.R R R F./.E E D G.B.B.H.;.4.4.t.C.K K K I.y y D.v.R R F./.E E F J.c c (.c.d.d.w.K.y.y.y.",
"L.L.L.M.N.3.3.*.2.1.1.1.O.P.P.Q.=.3.3.*.R.1.1.S.T.E E U.V.;.;.;.W.X.X.Y.w K K C.t.4.4.Z.`.1.1.S.T.E E E b b b  +.+d.d.++@+L.L.L.",
"      #+N.3.3.*.2.1.1.1.P.P.P.$+=.3.3.*.2.1.1.%+T.E E U.&+4.4.4.X.*+*+Y.w K K C.t.4.4.Z.`.1.1.%+T.E E E b b b =+.+d.d.++-+      ",
"      #+N.3.3.*.2.1.1.1.P.P.P.$+=.3.3.*.2.1.1.%+T.E E U.&+4.4.4.X.*+*+Y.w K K C.t.4.4.Z.`.1.1.%+T.E E E b b b =+.+d.d.++-+      ",
"      #+;+=.=.*.n.1.1.%.P.P.P.>+,+=.=.*.n.1.1.%+'+F F )+&+4.4.;.*+!+!+~+w K K w t.4.4.Z.`.1.1.%+'+F F F b b b =+c.d.d.{+]+      ",
"      #+^+S S R O.P.P.P.P P P /+R S S R 1.1.1.(+_+G G :+<+X.X.*+[+}+}+|+y L L I.4.4.4.Z.`.1.1.(+_+G G J.b b b o 1+2+2+3+4+. . . ",
"      #+^+J J t O.P.P.P.P q q I t J J R 1.1.1.(+5+c c 6+7+*+*+!+}+8 8 j z y y y 4.4.4.Z.`.1.1.(+5+c c c b b b o 8+9+9+0+4+. . . ",
"      #+^+J J t O.P.P.P.P q q I t J J R 1.1.1.(+5+c c 6+7+*+*+!+}+8 8 j z y y y 4.4.4.Z.`.1.1.(+5+c c c b b b o 8+9+9+0+4+. . . ",
"      ' a+^+^+b+c+d+d+e+f+g+g+h+i+j+j+k+l+m+m+n+o+p+p+q+r+s+s+t+u+p p v+w+x+x+y+z+z+z+A+B+C+C+D+E+F+F+F+G+G+G+G+H+I+I+J+$ . . . ",
"+ + + g.' #+#+K+L+L+L+L+L+L+L+L+k.k.k.k.k.k.k.k.M+M+M+K.N+L+L+L+O+' ' ' P+P+P+  N+N+N+N+L+L+L+L+Q+Q+Q+Q+R+S+S+S+-+-+-+T+U++ + + ",
"+ + + +         V+V+V+V+V+V+V+V+y.y.y.y.y.y.y.y.y.y.y.y.V+V+V+V+                V+V+V+V+V+V+V+V+V+V+V+V+                + + + + ",
"+ + + +         V+V+V+V+V+V+V+V+y.y.y.y.y.y.y.y.y.y.y.y.V+V+V+V+                V+V+V+V+V+V+V+V+V+V+V+V+                + + + + ",
"+ + + g.O+      L+V+V+V+V+V+V+V+k.E.E.E.k.k.k.k.E.E.E.k.V+V+V+L+                N+V+V+V+V+V+V+V+V+V+V+L+        O+O+O+O+g.+ + + ",
"      O+g.+ + + g.g.g.g.. W+W+W+X+X+X+. Y+Y+Y+Y+. X+X+W+g.g.g.g.+ + + U+. . . . W+W+W+W+W+W+W+. g.g.g.g.+ + + + Z+`+`+Y+O+      ",
"        + + + + + + + + . . . . . . . . `+# # `+. . . . + + + + + + + + . . . . . . . . . . . . + + + + + + + + @ # # `+O+      ",
"        + + + + + + + + . . . . . . . . `+# # `+. . . . + + + + + + + + . . . . . . . . . . . . + + + + + + + + @ # # `+O+      ",
"         @& & & & & & & % % % % % % % .@# = = # % +@+@+@ @@@@@@@& & & & % % % % % % % % % % % % & & & & & & & * # = = # O+      ",
"      ' #@^ ^ ^ ^ ^ ^ ] < [ [ [ [ [ [ < ( / / $@%@%@%@%@&@&@&@*@=@^ ^ ] ! ! ! ! [ [ [ < : _ _ _ ^ ^ ^ ] 7 7 7 7 -@-@-@;@'       ",
"      ' p 8 8 8 8 8 8 8 9 9 9 9 9 9 9 9 8 8 8 }+!+*+*+*+>@>@>@,@}+8 8 8 7 7 7 7 9 9 9 9 8 8 8 8 8 8 8 8 9 9 9 9 7 7 7 6 '       ",
"      ' p 8 8 8 8 8 8 8 9 9 9 9 9 9 9 9 8 8 8 }+!+*+*+*+>@>@>@,@}+8 8 8 7 7 7 7 9 9 9 9 8 8 8 8 8 8 8 8 9 9 9 9 7 7 7 6 '       ",
"      ' '@)@)@)@g g g g m 9 9 9 !@~@~@{@H H H ]@*+X.X.*+>@>@>@>@^@g g g f 7 7 7 m m m l }+}+}+}+}+}+}+/@l m m m 7 7 7 6 '       ",
"      #+;+=.=.,+R t t s g 8 8 (@q.D D q.c d d _@:@4.4.;.*+*+*+<@[@t t s r q q q q q q }@|@!+!+|@>@,@,@1@2@q q q 8 8 8 p '       ",
"      #+N.3.3.=.S J J t g 8 8 3@D E E F G c c 4@:@4.4.4.X.*+*+<@5@J J t I q q q q q q 6@!+*+*+*+>@>@>@,@2@q q q 8 8 8 p '       ",
"      #+N.3.3.=.S J J t g 8 8 3@D E E F G c c 4@:@4.4.4.X.*+*+<@5@J J t I q q q q q q 6@!+*+*+*+>@>@>@,@2@q q q 8 8 8 p '       ",
"      #+7@8@8@9@0@a.a.].a@b@b@c@D E E F G c c 4@:@4.4.4.X.*+*+<@5@J J t d@Q Q Q q q q }@*+X.X.*+>@>@>@e@f@g@g@h@b@b@b@i@N O+O+O+",
"+ + + j@k@l@l@k@m@0.0.n@o@p@p@q@F E E F G c c 4@:@4.4.4.X.*+*+<@5@J J S r@*.*.r@s@7 7 s.;.4.4.;.*+*+*+t@u@v@v@v@w@p@p@x@y@`+`+`+",
"+ + + z@l@7.7.6.8.9.9.A@B@9+9+1+F E E F G c c 4@:@4.4.4.X.*+*+<@5@J J S =.3.3.=.s@7 7 B.;.4.4.4.X.*+*+C@D@d.d.d.2+9+9+E@F@# # # ",
"+ + + z@l@7.7.6.8.9.9.A@B@9+9+1+F E E F G c c 4@:@4.4.4.X.*+*+<@5@J J S =.3.3.=.s@7 7 B.;.4.4.4.X.*+*+C@D@d.d.d.2+9+9+E@F@# # # ",
"g.g.g.G@k@l@l@k@m@0.0.n@B@9+9+1+F E E F G c c 4@H@I@I@I@J@K@K@L@M@R R R =.3.3.=.N@O@O@P@;.4.4.4.X.*+*+C@Q@R@R@S@T@B@B@H+U@Y+Y+Y+",
"k.k.k.l.V@8@8@9@0@a.a.W@X@9+9+1+F E E F G c c Y@Z@`@`@`@ # # #.#+#1.1.R.*.3.3.=.J @#@###Z.4.4.4.X.*+*+$#%#6.6.&#9.A@A@~.K.k.k.k.",
"y.y.y.z.m.3.3.=.S J J *#X@9+9+1+F E E F G c c Y@=#-#-#-#;#;#;#>#,#1.1.2.*.3.3.=.S J J '#)#4.4.4.X.*+*+!#6.7.7.6.8.9.9.!.~#y.y.y.",
"y.y.y.z.m.3.3.=.S J J *#X@9+9+1+F E E F G c c Y@=#-#-#-#;#;#;#>#,#1.1.2.*.3.3.=.S J J '#)#4.4.4.X.*+*+!#6.7.7.6.8.9.9.!.~#y.y.y.",
"y.y.y.l.m.3.3.=.R R R {#X@9+9+1+F E E F J.c c ]#=#-#-#-#;#;#;#>#,#%.%.&.*.=.=.=.^#S S '#)#4.4.4.X.*+*+$#%#6.6.&#9.A@A@~.M+y.y.y.",
"L.L.L.M.N.3.3.*.R.1.1./#(#9+9+1+F E E E b b b o _#-#-#-#;#;#;#;#( :#:#)@R S S ^#=.=.=.<#[#4.4.4.X.*+*+C@Q@R@R@S@T@B@B@}#@+L.L.L.",
"      #+N.3.3.*.2.1.1.|#(#9+9+1+F E E E b b b o _#-#-#-#;#;#;#;#1#8 8 g t J J S =.3.3.<#[#4.4.4.X.*+*+C@D@d.d.d.2+9+9+I+-+      ",
"      #+N.3.3.*.2.1.1.|#(#9+9+1+F E E E b b b o _#-#-#-#;#;#;#;#1#8 8 g t J J S =.3.3.<#[#4.4.4.X.*+*+C@D@d.d.d.2+9+9+I+-+      ",
"      #+;+=.=.*.n.1.1.|#2#3#3#4#F F F F b b b o 5#6#6#6# # # #7#8#9#9#0#t R R R =.=.=.<#)#4.4.;.*+*+*+t@a#d.d.b#8+8+8+H+-+      ",
". . . c#d#S S R 1.1.1.e#f#g#g#h#i#G G J.b b b j#k#l#l#l#K@K@K@l#m#f#f#n#o#1.1.p#R S S q#r#X.X.*+>@>@>@s#t#2+2+8+u#v#v#w#S+      ",
". . . x#y#J J R 1.1.1.e#z#z#z#A#B#c c c b b b j#C#*+*+*+*+*+*+D#E#z#z#z#e#1.1.1.R J J 5@<@*+*+*+>@>@>@F#G#9+9+8+v#c c H#S+      ",
". . . x#y#J J R 1.1.1.e#z#z#z#A#B#c c c b b b j#C#*+*+*+*+*+*+D#E#z#z#z#e#1.1.1.R J J 5@<@*+*+*+>@>@>@F#G#9+9+8+v#c c H#S+      ",
". . . c#I#J#J#K#C+C+C+L#M#N#N#O#q+p+p+P#Q#R#R#S#T#s+s+s+U#U#U#V#W#X#X#Y#L#C+C+C+K#J#J#Z#`#s+s+s+ $ $ $.$+$I+I+H+w#H#H#@$S+      ",
"        L+L+L+L+L+L+L+L+k.k.k.k.M+M+M+M+#$#$#$K.N+L+L+L+-+P+P+P+O+O+O+-+L+L+L+L+L+L+L+L+L+L+L+L+L+L+L+L+-+-+-+-+S+S+S+S+        ",
"        V+V+V+V+V+V+V+V+y.y.y.y.y.y.y.y.y.y.y.y.V+V+V+V+                V+V+V+V+V+V+V+V+V+V+V+V+V+V+V+V+                        ",
"        V+V+V+V+V+V+V+V+y.y.y.y.y.y.y.y.y.y.y.y.V+V+V+V+                V+V+V+V+V+V+V+V+V+V+V+V+V+V+V+V+                        ",
"        V+V+V+V+V+V+V+V+y.y.y.y.y.y.y.y.y.y.y.y.V+V+V+V+                V+V+V+V+V+V+V+V+V+V+V+V+V+V+V+V+                        "};
