/* XPM */
static char * Chiseled_Bookshelf_xpm[] = {
"64 64 482 2",
"  	c #CCA66C",
". 	c #B38C52",
"+ 	c #B38C51",
"@ 	c #CBA66C",
"# 	c #A0854E",
"$ 	c #9F844D",
"% 	c #CBA56B",
"& 	c #CAA46B",
"* 	c #B28B51",
"= 	c #B28B50",
"- 	c #CAA56B",
"; 	c #9E834C",
"> 	c #9E834D",
", 	c #9E834E",
"' 	c #2B2213",
") 	c #261D10",
"! 	c #231A0E",
"~ 	c #272011",
"{ 	c #456222",
"] 	c #456322",
"^ 	c #39521B",
"/ 	c #39511B",
"( 	c #211B0E",
"_ 	c #211A0D",
": 	c #221A12",
"< 	c #4D2366",
"[ 	c #4D2367",
"} 	c #3A2247",
"| 	c #3A2246",
"1 	c #3C2446",
"2 	c #7C623E",
"3 	c #7D633E",
"4 	c #19130A",
"5 	c #1A170B",
"6 	c #40601F",
"7 	c #40611F",
"8 	c #324F17",
"9 	c #324E17",
"0 	c #1A150A",
"a 	c #1B1310",
"b 	c #4A1F66",
"c 	c #4B1F67",
"d 	c #351C47",
"e 	c #351C46",
"f 	c #371F46",
"g 	c #7B613E",
"h 	c #A0844D",
"i 	c #211C11",
"j 	c #19150E",
"k 	c #19160E",
"l 	c #191A13",
"m 	c #19170F",
"n 	c #40621F",
"o 	c #335017",
"p 	c #4C1F69",
"q 	c #4D2069",
"r 	c #4E206B",
"s 	c #4D206A",
"t 	c #371C49",
"u 	c #361C48",
"v 	c #BC9862",
"w 	c #BA9761",
"x 	c #1E5352",
"y 	c #0F5151",
"z 	c #0F5353",
"A 	c #168383",
"B 	c #168484",
"C 	c #106161",
"D 	c #106060",
"E 	c #0F5252",
"F 	c #56842A",
"G 	c #57852A",
"H 	c #1F141C",
"I 	c #8C3AC0",
"J 	c #8D3BC1",
"K 	c #8E3BC2",
"L 	c #A642E3",
"M 	c #A643E4",
"N 	c #A542E3",
"O 	c #682B8F",
"P 	c #662B8D",
"Q 	c #492660",
"R 	c #49265F",
"S 	c #4A285E",
"T 	c #7B613F",
"U 	c #BB9762",
"V 	c #1E5452",
"W 	c #168585",
"X 	c #106262",
"Y 	c #8E3BC3",
"Z 	c #A743E4",
"` 	c #A743E5",
" .	c #682C90",
"..	c #672B8E",
"+.	c #672B8D",
"@.	c #4A2660",
"#.	c #4A285F",
"$.	c #1E5453",
"%.	c #1B170E",
"&.	c #1B140B",
"*.	c #1C180B",
"=.	c #41621F",
"-.	c #1B160B",
";.	c #21151C",
">.	c #7C623F",
",.	c #7D623E",
"'.	c #B28C52",
").	c #1D6261",
"!.	c #229393",
"~.	c #229494",
"{.	c #125251",
"].	c #4D3A1F",
"^.	c #4D3A1E",
"/.	c #4E3C1E",
"(.	c #57842A",
"_.	c #6A9D3A",
":.	c #6B9E3A",
"<.	c #6A9D39",
"[.	c #416220",
"}.	c #334F17",
"|.	c #4E3923",
"1.	c #672C8E",
"2.	c #7B31A8",
"3.	c #7A31A7",
"4.	c #4C1F68",
"5.	c #361C47",
"6.	c #392046",
"7.	c #9A7642",
"8.	c #9B7742",
"9.	c #4D3A20",
"0.	c #4E3A1E",
"a.	c #4E3A23",
"b.	c #7931A6",
"c.	c #236160",
"d.	c #196060",
"e.	c #196261",
"f.	c #309493",
"g.	c #309593",
"h.	c #1F6361",
"i.	c #1F6260",
"j.	c #145252",
"k.	c #145251",
"l.	c #165151",
"m.	c #5A8429",
"n.	c #5A852A",
"o.	c #5A862A",
"p.	c #6F9E3A",
"q.	c #6F9F3B",
"r.	c #6E9E3A",
"s.	c #46631F",
"t.	c #45621F",
"u.	c #355017",
"v.	c #354F17",
"w.	c #B38B50",
"x.	c #913719",
"y.	c #903417",
"z.	c #923B1A",
"A.	c #EFC759",
"B.	c #F0C859",
"C.	c #C2900B",
"D.	c #C28E06",
"E.	c #C18D06",
"F.	c #6B2A12",
"G.	c #692612",
"H.	c #692712",
"I.	c #4F3A1E",
"J.	c #523D1E",
"K.	c #C18E02",
"L.	c #C28F01",
"M.	c #C39006",
"N.	c #F0C857",
"O.	c #F1C858",
"P.	c #C28E01",
"Q.	c #C18E01",
"R.	c #856300",
"S.	c #846200",
"T.	c #836101",
"U.	c #4F3B1E",
"V.	c #923616",
"W.	c #913314",
"X.	c #933A17",
"Y.	c #F1C857",
"Z.	c #F2C958",
"`.	c #C49005",
" +	c #C38F00",
".+	c #C28E00",
"++	c #6C290F",
"@+	c #6A250F",
"#+	c #866300",
"$+	c #856200",
"%+	c #846201",
"&+	c #913616",
"*+	c #903314",
"=+	c #933917",
"-+	c #F0C757",
";+	c #F1C757",
">+	c #C39005",
",+	c #C18D00",
"'+	c #4E391E",
")+	c #513C1D",
"!+	c #4F3A1D",
"~+	c #6C2912",
"{+	c #6B250F",
"]+	c #6D2A0F",
"^+	c #C38F05",
"/+	c #886400",
"(+	c #866200",
"_+	c #6B270F",
":+	c #69250F",
"<+	c #1E150B",
"[+	c #1D1B0C",
"}+	c #598429",
"|+	c #344F17",
"1+	c #4B295E",
"2+	c #9A7643",
"3+	c #856100",
"4+	c #6A270F",
"5+	c #1C130A",
"6+	c #1B1A0B",
"7+	c #4B295F",
"8+	c #B18B50",
"9+	c #6B2B16",
"0+	c #692713",
"a+	c #6B2B13",
"b+	c #C18E0C",
"c+	c #C28F0C",
"d+	c #856306",
"e+	c #846206",
"f+	c #846106",
"g+	c #6A2812",
"h+	c #682612",
"i+	c #7C633F",
"j+	c #1A6060",
"k+	c #156060",
"l+	c #156161",
"m+	c #238584",
"n+	c #186261",
"o+	c #176160",
"p+	c #145151",
"q+	c #1C1415",
"r+	c #7B623F",
"s+	c #176161",
"t+	c #7D633F",
"u+	c #216260",
"v+	c #1D6361",
"w+	c #218584",
"x+	c #1E6362",
"y+	c #1E6261",
"z+	c #261F13",
"A+	c #466322",
"B+	c #5A852C",
"C+	c #5B862C",
"D+	c #456321",
"E+	c #446221",
"F+	c #38511A",
"G+	c #38501A",
"H+	c #241D10",
"I+	c #241C0F",
"J+	c #261C18",
"K+	c #682E8C",
"L+	c #692F8D",
"M+	c #692F8E",
"N+	c #7B34A6",
"O+	c #7B34A5",
"P+	c #4E2468",
"Q+	c #392147",
"R+	c #392146",
"S+	c #3B2346",
"T+	c #BB9761",
"U+	c #CBA66B",
"V+	c #BB9862",
"W+	c #B28B53",
"X+	c #B28B52",
"Y+	c #BB9861",
"Z+	c #B28C51",
"`+	c #9C7843",
" @	c #9B7842",
".@	c #9B7642",
"+@	c #9F834D",
"@@	c #9A7743",
"#@	c #813041",
"$@	c #812E41",
"%@	c #913149",
"&@	c #812D41",
"*@	c #802D41",
"=@	c #251A0F",
"-@	c #211A13",
";@	c #1F3B69",
">@	c #1F3B6A",
",@	c #1F3A69",
"'@	c #19305D",
")@	c #1E325C",
"!@	c #802A41",
"~@	c #912F49",
"{@	c #7F2A41",
"]@	c #1E140C",
"^@	c #191410",
"/@	c #173969",
"(@	c #17396A",
"_@	c #0F2E5D",
":@	c #162F5D",
"<@	c #9C7743",
"[@	c #922F49",
"}@	c #812A41",
"|@	c #22160D",
"1@	c #22170D",
"2@	c #24180E",
"3@	c #1E150C",
"4@	c #1C140B",
"5@	c #17396B",
"6@	c #173A6B",
"7@	c #822F42",
"8@	c #812A42",
"9@	c #B53C5B",
"0@	c #B53C5C",
"a@	c #AB6045",
"b@	c #AC6045",
"c@	c #AC6146",
"d@	c #B96E53",
"e@	c #BA6E53",
"f@	c #7E4633",
"g@	c #7D4633",
"h@	c #7D4532",
"i@	c #6B3C2B",
"j@	c #6A3C2B",
"k@	c #693B2A",
"l@	c #191515",
"m@	c #204C8F",
"n@	c #204D90",
"o@	c #204D91",
"p@	c #2758A4",
"q@	c #2759A4",
"r@	c #997642",
"s@	c #B63C5C",
"t@	c #AD6146",
"u@	c #BB6F54",
"v@	c #BA6E54",
"w@	c #7F4734",
"x@	c #204C90",
"y@	c #2759A5",
"z@	c #833341",
"A@	c #812E40",
"B@	c #832E41",
"C@	c #B6415C",
"D@	c #B7425C",
"E@	c #B7415C",
"F@	c #933349",
"G@	c #923248",
"H@	c #802C41",
"I@	c #802C40",
"J@	c #7F2B40",
"K@	c #1F150D",
"L@	c #24180D",
"M@	c #1B1615",
"N@	c #254C8F",
"O@	c #254D90",
"P@	c #264D90",
"Q@	c #345CA4",
"R@	c #345CA3",
"S@	c #243C6A",
"T@	c #233C69",
"U@	c #233B69",
"V@	c #142E5D",
"W@	c #142E5C",
"X@	c #1D305C",
"Y@	c #CCA66B",
"Z@	c #C28E0B",
"`@	c #C28E03",
" #	c #C38F08",
".#	c #C38F09",
"+#	c #C28E04",
"@#	c #C28D03",
"##	c #866203",
"$#	c #856103",
"%#	c #846103",
"&#	c #503A1F",
"*#	c #8F341C",
"=#	c #90341C",
"-#	c #923A1E",
";#	c #EFC659",
">#	c #F0C85A",
",#	c #F0C759",
"'#	c #C28F0D",
")#	c #C28E08",
"!#	c #C18D08",
"~#	c #6B2913",
"{#	c #692513",
"]#	c #6B2915",
"^#	c #513B1F",
"/#	c #503A1E",
"(#	c #C38F0D",
"_#	c #C38E06",
":#	c #C48F0B",
"<#	c #F1C758",
"[#	c #F2C858",
"}#	c #AC6145",
"|#	c #AD6245",
"1#	c #AE6246",
"2#	c #BC7154",
"3#	c #BB7154",
"4#	c #814933",
"5#	c #7F4833",
"6#	c #7F4832",
"7#	c #6C3D2B",
"8#	c #6B3D2B",
"9#	c #6B3D2A",
"0#	c #B6415B",
"a#	c #B63E5B",
"b#	c #B73F5C",
"c#	c #D44E6D",
"d#	c #D54E6E",
"e#	c #812C41",
"f#	c #7F2C40",
"g#	c #4F3A1F",
"h#	c #C18E04",
"i#	c #C38E03",
"j#	c #C49008",
"k#	c #C38F07",
"l#	c #C28E02",
"m#	c #866201",
"n#	c #856201",
"o#	c #846102",
"p#	c #6A260F",
"q#	c #B38B51",
"r#	c #B63E5C",
"s#	c #B73C5C",
"t#	c #D44A6E",
"u#	c #4F391F",
"v#	c #513C1E",
"w#	c #692618",
"x#	c #6B2A18",
"y#	c #C18D12",
"z#	c #C28E12",
"A#	c #C18E12",
"B#	c #856208",
"C#	c #846208",
"D#	c #846108",
"E#	c #6A2713",
"F#	c #6B3C2A",
"G#	c #234C8F",
"H#	c #234D90",
"I#	c #2F5AA4",
"J#	c #2F5AA3",
"K#	c #1D3B6A",
"L#	c #1D3A69",
"M#	c #20315C",
"N#	c #1C315D",
"O#	c #B53E5C",
"P#	c #D34A6D",
"Q#	c #B18B51",
"R#	c #923249",
"S#	c #922F4A",
"T#	c #7F4733",
"U#	c #804734",
"V#	c #173A6C",
"W#	c #913249",
"X#	c #92354A",
"Y#	c #923349",
"Z#	c #92334A",
"`#	c #B63F5C",
" $	c #93344A",
".$	c #92344A",
"+$	c #812F41",
"@$	c #291E12",
"#$	c #7E4834",
"$$	c #7F4834",
"%$	c #804934",
"&$	c #AC6246",
"*$	c #AD6246",
"=$	c #804834",
"-$	c #6D3F2D",
";$	c #6C3E2C",
">$	c #241D14",
",$	c #233C6A",
"'$	c #233C6B",
")$	c #294F90",
"!$	c #23335C",
"~$	c #BC9762",
"{$	c #CBA56C",
"]$	c #BB9763",
"^$	c #BA9763",
"/$	c #9A7744",
"                        . + + + + + + .                                       @ # $ $ $ $ $ $ $ $ $ $ $ + + + + + + + + $ $ $ $ ",
"                        . + + + + + + .                                       @ # $ $ $ $ $ $ $ $ $ $ $ + + + + + + + + $ $ $ $ ",
"                        . + + + + + + .                                       @ # $ $ $ $ $ $ $ $ $ $ $ + + + + + + + + $ $ $ $ ",
"@ @ @ @ % % % % % % % & * = = = = = = * & % % % % % % % % % % % % % % % % % % - $ ; ; ; > , , , , , , , * * * * * * * * $ $ $ $ ",
"# # # $ ' ) ) ) ) ) ) ) ! ! ! ! ! ! ! ! ) ) ) ~ { ] ] ] ] ] ] { ^ / / / / / / / ( _ _ : < [ [ [ [ [ [ < } | | | | | | 1 2 3 3 3 ",
"$ $ $ ; _ 4 4 4 4 4 4 4 4 4 4 4 4 4 4 4 4 4 4 5 6 7 7 7 7 7 7 7 8 8 8 8 8 8 8 9 0 4 4 a b c c c c c c c d e e e e e e f g 2 2 2 ",
"$ $ $ ; _ 4 4 4 4 4 4 4 4 4 4 4 4 4 4 4 4 4 4 5 6 7 7 7 7 7 7 7 8 8 8 8 8 8 8 9 0 4 4 a b c c c c c c c d e e e e e e f g 2 2 2 ",
"h h h > i j j k l l l l m m m m k j j j 4 4 4 5 6 7 7 7 n n n 7 o 8 8 8 8 8 8 9 0 4 4 a p q q q r r r s t u u u d e e f g 2 2 2 ",
"v v v w x y y z A B B B C D D D E y y y j 4 4 5 6 7 7 n F G G F 7 7 7 6 8 8 8 9 0 4 4 H I J J K L M M N O P P P Q R R S T 2 2 2 ",
"v v v U V E E z B W W W X C C C E E E y j 4 4 5 6 7 7 n G G G G n 7 7 7 8 8 8 9 0 4 4 H J K K Y Z ` ` M  .....+.@.R R #.T 2 2 2 ",
"v v v U V E E z B W W W X C C C E E E y j 4 4 5 6 7 7 n G G G G n 7 7 7 8 8 8 9 0 4 4 H J K K Y Z ` ` M  .....+.@.R R #.T 2 2 2 ",
"v v v U $.E E z W W W W X C C C E E E y %.&.&.*.7 n n =.G G G G n 7 7 7 8 8 8 9 -.&.&.;.I J J K M M M L O +.+.P Q R R S >.,.,.,.",
"+ + + '.).C C X !.~.~.!.X C C C E E E {.].^.^./.(.G G G _.:.:.<.[.7 7 7 8 8 8 }.^.^.^.|.1.O O O 2.2.2.3.q 4.4.c 5.e e 6.7.8.8.8.",
"+ + + * ).C C X !.~.~.!.X C C C E E E {.9.0.0./.(.G G G :.:.:._.[.7 7 7 8 8 8 }.0.0.0.a.+.......3.3.3.b.4.c c c d e e 6.7.8.8.8.",
"+ + + * ).C C X !.~.~.!.X C C C E E E {.9.0.0./.(.G G G :.:.:._.[.7 7 7 8 8 8 }.0.0.0.a.+.......3.3.3.b.4.c c c d e e 6.7.8.8.8.",
"+ + + * c.d.d.e.f.g.g.f.h.i.i.i.j.k.k.l.9.0.0./.m.n.n.o.p.q.q.r.s.t.t.t.u.v.v.v.0.0.0.a.+.......3.3.3.b.4.c c c d e e 6.7.8.8.8.",
"+ + + w.x.y.y.z.A.B.B.B.C.D.D.E.F.G.G.H.I.0.0.J.K.L.L.M.N.O.O.N.M.P.P.Q.R.S.S.T.U.0.0.a.+.......3.3.3.b.4.c c c d e e 6.7.8.8.8.",
"+ + + w.V.W.W.X.Y.Z.Z.Y.`. + +.+++@+@+@+I.0.0.J.P. + +`.Y.Z.Z.Y.`. + +.+#+$+$+%+U.0.0.a.+.......3.3.3.b.4.c c c d e e 6.7.8.8.8.",
"+ + + w.V.W.W.X.Y.Z.Z.Y.`. + +.+++@+@+@+I.0.0.J.P. + +`.Y.Z.Z.Y.`. + +.+#+$+$+%+U.0.0.a.+.......3.3.3.b.4.c c c d e e 6.7.8.8.8.",
"+ + + w.&+*+*+=+-+Y.Y.;+>+.+.+,+++@+@+@+'+^.^.)+K.L.L.M.N.O.O.N.M.P.P.Q.R.S.S.T.!+^.^.|.1.O O O 2.2.2.3.q 4.4.c 5.e e 6.7.8.8.8.",
"+ + + = ~+{+{+]+^+`.`.>+/+#+#+(+_+@+@+:+<+&.&.[+}+n.n.o.p.q.q.r.s.t.t.t.u.v.v.|+-.&.&.;.I J J K M M M L O +.+.P Q R R 1+2+8.8.8.",
"+ + + = ~+@+@+++.+ + +.+#+$+$+3+4+@+@+:+5+4 4 6+F G G G :.:.:._.[.7 7 7 8 8 8 9 0 4 4 H J K K Y Z ` ` M  .....+.@.R R 7+2+8.8.8.",
"+ + + = ~+@+@+++.+ + +.+#+$+$+3+4+@+@+:+5+4 4 6+F G G G :.:.:._.[.7 7 7 8 8 8 9 0 4 4 H J K K Y Z ` ` M  .....+.@.R R 7+2+8.8.8.",
"* * * 8+9+0+0+a+b+c+c+b+d+e+e+f+g+G.G.h+5+4 4 6+F G G G _.:.:.<.[.7 7 7 8 8 8 9 0 4 4 H I J J K M M M L O +.+.P Q R R 1+2+8.8.8.",
"3 3 3 i+j+k+k+l+m+m+m+m+n+o+o+o+j.k.k.p+j 4 4 5 7 n n =.G G G G n 7 7 7 8 8 8 9 0 4 4 q+..O O O 2.2.2.3.q 4.4.c 5.e e f 2 ,.,.,.",
"2 2 2 r+s+C C X W W W W X C C C E E E y j 4 4 5 6 7 7 n G G G G n 7 7 7 8 8 8 9 0 4 4 q+P ......3.3.3.b.4.c c c d e e f g 2 2 2 ",
"2 2 2 r+s+C C X W W W W X C C C E E E y j 4 4 5 6 7 7 n G G G G n 7 7 7 8 8 8 9 0 4 4 q+P ......3.3.3.b.4.c c c d e e f g 2 2 2 ",
"t+t+t+i+u+).).v+w+w+w+w+x+y+y+y+$.V V x z+) ) ~ { ] ] A+B+C+C+B+D+E+E+E+F+F+F+G+H+I+I+J+K+L+L+M+N+N+N+O+P+[ [ < Q+R+R+S+2 3 3 3 ",
"U U U T+'.* * * '.'.'.'.U U U U U U U U - % % % % % % % U+U+U+% V+T+T+T+T+T+T+T+T+T+T+T+W+X+X+X+W+W+W+W+, , , > > > > > $ $ $ $ ",
"v v v v + + + + + + + + v v v v v v v v                         v v v v v v v v v v v v + + + + + + + + $ $ $ $ $ $ $ $ $ $ $ $ ",
"v v v v + + + + + + + + v v v v v v v v                         v v v v v v v v v v v v + + + + + + + + $ $ $ $ $ $ $ $ $ $ $ $ ",
"v v v v + + + + + + + + T+v v v v v v v % @ @ @ @ @ @ @       % v v v v v v v v v v v Y++ + + + + + + Z+$ $ $ $ $ $ $ $ $ $ $ $ ",
"+ + + + + + + + `+8.8.8.`+`+`+`+$ h h h # # # # # # # # + . . . + + + + h h h h h h h h $ $ $ $  @8.8.8.8.8.8.8.8.8.8.8.8.8.8.8.",
"+ + + + + + + + 8.8.8.8.8.8.8.8.$ $ $ $ $ $ $ $ $ $ $ $ + + + + + + + + $ $ $ $ $ $ $ $ $ $ $ $ 8.8.8.8.8.8.8.8.8.8.8.8.8.8.8.8.",
"+ + + + + + + + 8.8.8.8.8.8.8.8.$ $ $ $ $ $ $ $ $ $ $ $ + + + + + + + + $ $ $ $ $ $ $ $ $ $ $ $ 8.8.8.8.8.8.8.8.8.8.8.8.8.8.8.8.",
"+ + + + * * * * 8..@.@.@.@.@.@.@+@+@+@+@; ; ; ; ; ; ; ; 8+= = = = = = 8+; ; ; ; ; ; ; ; , , , > @@2+2+2+2+2+2+2+2+2+2+2+8.8.8.8.",
"8.8.8.8.#@$@$@$@%@%@%@%@&@*@*@*@&@&@&@*@=@_ _ _ _ _ _ _ ! ! ! ! ! ! ! ! _ _ _ _ _ _ _ -@;@>@>@>@>@>@>@,@'@'@'@'@'@'@'@)@>.,.,.,.",
"8.8.8..@*@!@!@!@~@~@~@~@!@!@!@!@!@!@!@{@]@4 4 4 4 4 4 4 4 4 4 4 4 4 4 4 4 4 4 4 4 4 4 ^@/@(@(@(@(@(@(@(@_@_@_@_@_@_@_@:@T 2 2 2 ",
"8.8.8..@*@!@!@!@~@~@~@~@!@!@!@!@!@!@!@{@]@4 4 4 4 4 4 4 4 4 4 4 4 4 4 4 4 4 4 4 4 4 4 ^@/@(@(@(@(@(@(@(@_@_@_@_@_@_@_@:@T 2 2 2 ",
"`+`+`+<@&@!@!@!@~@[@[@~@}@!@!@!@!@!@!@{@]@4 4 4 |@1@1@1@2@2@2@2@3@3@3@3@4@4@4@4@4 4 4 ^@(@5@5@5@6@6@6@6@_@_@_@_@_@_@_@:@>.,.,.,.",
"% % % & 7@!@!@8@9@0@0@9@~@~@~@~@!@!@!@{@]@4 4 |@a@b@b@c@d@e@e@d@f@g@g@h@i@j@j@k@4@4 4 l@m@n@n@o@p@q@q@p@6@(@(@(@_@_@_@'@r@8.8.8.",
"      % 7@!@!@8@0@s@s@0@[@~@~@~@!@!@!@{@]@4 4 1@b@t@t@t@u@u@u@v@w@f@f@f@i@i@i@j@4@4 4 l@x@o@o@o@y@y@y@q@6@(@(@(@_@_@_@'@2+8.8.8.",
"      % 7@!@!@8@0@s@s@0@[@~@~@~@!@!@!@{@]@4 4 1@b@t@t@t@u@u@u@v@w@f@f@f@i@i@i@j@4@4 4 l@x@o@o@o@y@y@y@q@6@(@(@(@_@_@_@'@2+8.8.8.",
"      % z@A@A@B@C@D@D@E@F@G@G@G@H@I@I@J@K@&.&.L@b@t@t@t@u@u@u@v@w@f@f@f@i@i@i@j@3@&.&.M@N@O@O@P@Q@Q@Q@R@S@T@T@U@V@W@W@X@@@8.8.8.",
"      Y@Z@`@`@ #;+O.O.;+.#+#+#@###$#$#%#I.^.^.&#c@t@t@t@u@u@u@v@w@f@f@f@i@i@i@i@0.^.^.I.*#=#=#-#;#>#>#,#'#)#)#!#~#{#{#]#= + + + ",
"      Y@ # + +`.Y.Z.Z.Y.`. + +.+#+$+$+%+U.0.0.^#c@t@t@t@u@u@u@v@w@f@f@f@i@i@i@i@I.0.0./#*+W.W.X.Y.Z.Z.Y.`. + +.+++@+@+~+= + + + ",
"      Y@ # + +`.Y.Z.Z.Y.`. + +.+#+$+$+%+U.0.0.^#c@t@t@t@u@u@u@v@w@f@f@f@i@i@i@i@I.0.0./#*+W.W.X.Y.Z.Z.Y.`. + +.+++@+@+~+= + + + ",
"      % (#_#_#:#<#[#[#<#:#_#_#D.##$#$#%#U.0.0.^#}#|#|#1#2#2#2#3#4#5#5#6#7#8#8#9#I.0.0./#*+*+*+=+-+Y.Y.;+>+.+.+,+++@+@+~+= + + + ",
". . . . 0#a#a#b#c#d#d#c#b#a#a#a#e#I@I@f#g#0.0.J.h#i#i#j#;+O.O.;+k#l#l#K.m#n#n#o#U.0.0.I.p#{+{+]+^+`.`.>+/+#+#+(+_+@+@+~+= + + + ",
"+ + + q#r#s@s@s#t#t#t#t#s#s@s@0@8@!@!@{@g#0.0.J.P. + +`.Y.Z.Z.Y.`. + +.+#+$+$+%+U.0.0.I.@+@+@+++.+ + +.+#+$+$+3+4+@+@+~+= + + + ",
"+ + + q#r#s@s@s#t#t#t#t#s#s@s@0@8@!@!@{@g#0.0.J.P. + +`.Y.Z.Z.Y.`. + +.+#+$+$+%+U.0.0.I.@+@+@+++.+ + +.+#+$+$+3+4+@+@+~+= + + + ",
"+ + + q#r#s@s@s#t#t#t#t#s#s@s@0@8@!@!@{@u#^.^.v#h#i#i#j#;+O.O.;+k#l#l#K.m#n#n#o#!+^.^.'+w#w#w#x#y#z#z#A#B#C#C#D#E#{#{#]#= + + + ",
"+ + + q#r#s@s@s#t#t#t#t#s#s@s@0@8@!@!@{@K@&.&.L@}#|#|#1#2#2#2#3#4#5#5#6#7#8#8#F#3@&.&.M@G#H#H#H#I#I#I#J#K#L#L#L#V@W@W@M#* + + + ",
"+ + + q#r#s@s@s#t#t#t#t#s#s@s@0@8@!@!@{@]@4 4 1@b@t@t@t@u@u@u@v@w@f@f@f@i@i@i@j@4@4 4 l@x@o@o@o@y@y@y@q@6@(@(@(@_@_@_@N#* + + + ",
"+ + + q#r#s@s@s#t#t#t#t#s#s@s@0@8@!@!@{@]@4 4 1@b@t@t@t@u@u@u@v@w@f@f@f@i@i@i@j@4@4 4 l@x@o@o@o@y@y@y@q@6@(@(@(@_@_@_@N#* + + + ",
"+ + + q#O#0@0@s@P#t#t#P#s@0@0@9@8@!@!@{@]@4 4 1@a@c@c@t@u@u@u@e@w@f@f@f@i@i@i@j@4@4 4 l@m@n@n@o@q@y@y@p@6@(@(@(@_@_@_@N#Q#+ + + ",
"$ $ $ +@R#[@[@S#s@s#s#s@S#[@[@~@!@!@!@{@]@4 4 3@f@T#T#U#t@t@t@t@T#f@f@f@i@i@i@j@4@4 4 ^@(@5@5@V#o@o@o@o@5@(@(@(@_@_@_@'@@@8.8.8.",
"$ $ $ +@W#~@~@[@0@s@s@0@[@~@~@~@!@!@!@{@]@4 4 3@g@f@f@T#c@t@t@c@T#f@f@f@i@i@i@j@4@4 4 ^@/@(@(@5@n@o@o@n@5@(@(@(@_@_@_@'@2+8.8.8.",
"$ $ $ +@W#~@~@[@0@s@s@0@[@~@~@~@!@!@!@{@]@4 4 3@g@f@f@T#c@t@t@c@T#f@f@f@i@i@i@j@4@4 4 ^@/@(@(@5@n@o@o@n@5@(@(@(@_@_@_@'@2+8.8.8.",
"$ $ $ +@X#Y#Y#Z#`#`#`#`# $.$.$.$7@7@7@+$@$) ) @$#$$$$$%$&$*$*$&$=$$$$$$$-$-$-$;$) I+I+>$T@,$,$'$)$)$)$)$>@>@>@,@N#N#N#!$@@8.8.8.",
"+ + + + T+U U U ~$~$~$~$% {${${$% % % % % % % - U T+T+T++ q#q#q#* * * * T+T+T+T+T+T+T+T+U U U U ]$]$]$^$/$2+2+@@Q#* * * + + + + ",
"+ + + + v v v v v v v v                         v v v v + + + + + + + + v v v v v v v v v v v v v v v v `+8.8.8.+ + + + + + + + ",
"+ + + + v v v v v v v v                         v v v v + + + + + + + + v v v v v v v v v v v v v v v v `+8.8.8.+ + + + + + + + ",
"+ + + + v v v v v v v v                         v v v v + + + + + + + + v v v v v v v v v v v v v v v v `+8.8.8.+ + + + + + + + "};
