/* XPM */
static char * Empty_Bookshelf_xpm[] = {
"64 64 90 1",
" 	c #CCA66C",
".	c #B38C52",
"+	c #B38C51",
"@	c #CBA66C",
"#	c #A0854E",
"$	c #9F844D",
"%	c #CBA56B",
"&	c #CAA46B",
"*	c #B28B51",
"=	c #B28B50",
"-	c #9E834C",
";	c #B18B50",
">	c #2B2213",
",	c #261D10",
"'	c #231A0E",
")	c #211A0D",
"!	c #7C623E",
"~	c #7D633E",
"{	c #19130A",
"]	c #1E170C",
"^	c #7B613E",
"/	c #A0844D",
"(	c #9E834D",
"_	c #BC9862",
":	c #BA9761",
"<	c #241C0F",
"[	c #1D170D",
"}	c #271E11",
"|	c #BB9761",
"1	c #281E11",
"2	c #291F12",
"3	c #1A130A",
"4	c #7D623E",
"5	c #40311A",
"6	c #41311A",
"7	c #5F492B",
"8	c #5F4A2C",
"9	c #2C2113",
"0	c #9A7641",
"a	c #9B7742",
"b	c #42321A",
"c	c #604A2C",
"d	c #2C2213",
"e	c #9A7642",
"f	c #281F12",
"g	c #5F492C",
"h	c #1C150B",
"i	c #1A140B",
"j	c #1A140A",
"k	c #42311A",
"l	c #292012",
"m	c #B18A50",
"n	c #2A2013",
"o	c #7D633F",
"p	c #231B0E",
"q	c #2E2314",
"r	c #2E2414",
"s	c #45341D",
"t	c #45351D",
"u	c #302616",
"v	c #302516",
"w	c #261D11",
"x	c #46351D",
"y	c #46361D",
"z	c #2F2415",
"A	c #2E2415",
"B	c #241B0E",
"C	c #44341C",
"D	c #45341C",
"E	c #44331B",
"F	c #2D2314",
"G	c #2C2313",
"H	c #2F2515",
"I	c #BB9762",
"J	c #CAA56B",
"K	c #BB9861",
"L	c #B28C51",
"M	c #9C7843",
"N	c #9B7842",
"O	c #9A7742",
"P	c #291F10",
"Q	c #21180D",
"R	c #20180D",
"S	c #997641",
"T	c #21190D",
"U	c #2A2112",
"V	c #241C10",
"W	c #251C10",
"X	c #43331B",
"Y	c #322615",
"            .++++++.                   @#$$$$$$$$$$$++++++++$$$$",
"            .++++++.                   @#$$$$$$$$$$$++++++++$$$$",
"            .++++++.                   @#$$$$$$$$$$$++++++++$$$$",
"@@@@%%%%%%%&*======*&%%%%%%%%%%%%%%%%%%&$-----------;======;$$$$",
"###$>,,,,,,,'''''''',,,,,,,,,,,,,,,,,,,,))))))))))))''''''',!~~~",
"$$$-){{{{{{{{{{{{{{{{{{{{{{{{{{{{{{{{{{{{{{{{{{{{{{{{{{{{{{]^!!!",
"$$$-){{{{{{{{{{{{{{{{{{{{{{{{{{{{{{{{{{{{{{{{{{{{{{{{{{{{{{]^!!!",
"///(){{{{{{{{{{{{{{{{{{{{{{{{{{{{{{{{{{{{{{{{{{{{{{{{{{{{{{]^!!!",
"___:<{{{[[[[}}}}}}}}}}}}}}}}}}}}}}}}}}}}}}}}}}}}}}}}}}}}{{{]^!!!",
"___|<{{{[[[[}}}}}}}}}}}}}}}}}}}}}}}}}}}}}}}}}}}}}}}}}}}}{{{]^!!!",
"___|<{{{[[[[}}}}}}}}}}}}}}}}}}}}}}}}}}}}}}}}}}}}}}}}}}}}{{{]^!!!",
"___|<{{{[[[[}11111112222}}}}1111111111112222}}}}1111111}3{{]!444",
"+++*'{{{}}}}5666666678872}}156666666666678872}}156666665}}}90aaa",
"+++='{{{}}}16666666bccc82}}166666666666bccc82}}1666666661}}deaaa",
"+++='{{{}}}16666666bccc82}}166666666666bccc82}}1666666661}}deaaa",
"+++='{{{}}}16666666bccc8f}}}66666666666bccc8f}}}666666661}}deaaa",
"+++='{{{}}}16666666bcccgh{{i66666666666bcccgh{{i666666661}}deaaa",
"+++='{{{}}}16666666bcccgh{{j66666666666bcccgh{{j666666661}}deaaa",
"+++='{{{}}}16666666bcccgh{{j66666666666bcccgh{{j666666661}}deaaa",
"+++='{{{}}}16666666k7887h{{j66666666666k7887h{{j666666661}}deaaa",
"+++='{{{}}}166666666l22f{{{j666666666666l22f{{{j666666661}}deaaa",
"+++='{{{}}}1666666661}}}{{{j6666666666661}}}{{{j666666661}}deaaa",
"+++='{{{}}}1666666661}}}{{{j6666666666661}}}{{{j666666661}}deaaa",
"***m'{{{}}}1666666661}}}{{{j6666666666661}}}{{{j666666661}}d0aaa",
"~~~!]{{{}}}1666666661}}}{{{j6666666666661}}}{{{j666666661}}n!444",
"!!!^]{{{}}}1666666661}}}{{{j6666666666661}}}{{{j666666661}}n^!!!",
"!!!^]{{{}}}1666666661}}}{{{j6666666666661}}}{{{j666666661}}n^!!!",
"ooo4,''pqqqrstttttttuvvvw,,}xyyytttttttszzzAp''BCDDDCCCEFGGH!~~~",
"III|*======*||||||||J%%%%%%%%%%J||||||||||||*=======(-------$$$$",
"____++++++++________            ____________++++++++$$$$$$$$$$$$",
"____++++++++________            ____________++++++++$$$$$$$$$$$$",
"____++++++++|_______%@@@@@@@   %___________K+++++++L$$$$$$$$$$$$",
"++++++++MaaaMMMM$///########+...++++////////$$$$Naaaaaaaaaaaaaaa",
"++++++++aaaaaaaa$$$$$$$$$$$$++++++++$$$$$$$$$$$$aaaaaaaaaaaaaaaa",
"++++++++aaaaaaaa$$$$$$$$$$$$++++++++$$$$$$$$$$$$aaaaaaaaaaaaaaaa",
"++++===;O000000e------------;======;------------e00000000000aaaa",
"aaaOP'''QRRRRRRR))))))))))))''''''''))))))))))))RRRRRRRRRRRB!444",
"aaa0R{{{{{{{{{{{{{{{{{{{{{{{{{{{{{{{{{{{{{{{{{{{{{{{{{{{{{{]^!!!",
"aaa0R{{{{{{{{{{{{{{{{{{{{{{{{{{{{{{{{{{{{{{{{{{{{{{{{{{{{{{]^!!!",
"MMMaQ{{{{{{{{{{{{{{{{{{{{{{{{{{{{{{{{{{{{{{{{{{{{{{{{{{{{{{]!444",
"%%%&,{{{[[[[}}}}}}}}}}}}}}}}}}}}}}}}}}}}}}}}}}}}}}}}}}}}{{{RSaaa",
"   %,{{{[[[[}}}}}}}}}}}}}}}}}}}}}}}}}}}}}}}}}}}}}}}}}}}}{{{R0aaa",
"   %,{{{[[[[}}}}}}}}}}}}}}}}}}}}}}}}}}}}}}}}}}}}}}}}}}}}{{{R0aaa",
"   %,{{{[[[[}11111112222}}}}1111111111112222}}}}1111111}3{{TOaaa",
"   %,{{{}}}}5666666678872}}156666666666678872}}156666665}}}q;+++",
"   %,{{{}}}16666666bccc82}}166666666666bccc82}}1666666661}}q=+++",
"   %,{{{}}}16666666bccc82}}166666666666bccc82}}1666666661}}q=+++",
"   &,{{{}}}16666666bccc8f}}}66666666666bccc8f}}}666666661}}q=+++",
"...*'{{{}}}16666666bcccgh{{i66666666666bcccgh{{i666666661}}q=+++",
"+++='{{{}}}16666666bcccgh{{j66666666666bcccgh{{j666666661}}q=+++",
"+++='{{{}}}16666666bcccgh{{j66666666666bcccgh{{j666666661}}q=+++",
"+++='{{{}}}16666666k7887h{{j66666666666k7887h{{j666666661}}q=+++",
"+++='{{{}}}166666666l22f{{{j666666666666l22f{{{j666666661}}q=+++",
"+++='{{{}}}1666666661}}}{{{j6666666666661}}}{{{j666666661}}q=+++",
"+++='{{{}}}1666666661}}}{{{j6666666666661}}}{{{j666666661}}q=+++",
"+++;'{{{}}}1666666661}}}{{{j6666666666661}}}{{{j666666661}}q;+++",
"$$$-){{{}}}1666666661}}}{{{j6666666666661}}}{{{j666666661}}dOaaa",
"$$$-){{{}}}1666666661}}}{{{j6666666666661}}}{{{j666666661}}deaaa",
"$$$-){{{}}}1666666661}}}{{{j6666666666661}}}{{{j666666661}}deaaa",
"$$$-U<<<AzzHxyyyyyyxuvvvV<<WCDDDDDDDtttszzzA<<<WstttEEEXqqqYOaaa",
"++++||||||||J%%%%%%%%%%J||||*======*|||||||||||||||:aeeO;===++++",
"++++________            ____++++++++________________Maaa++++++++",
"++++________            ____++++++++________________Maaa++++++++",
"++++________            ____++++++++________________Maaa++++++++"};
