/* XPM */
static char * Planks_xpm[] = {
"64 64 35 1",
" 	c #B8945F",
".	c #AF8F55",
"+	c #C29D62",
"@	c #977542",
"#	c #967441",
"$	c #C19C62",
"%	c #B7935E",
"&	c #A0844D",
"*	c #A0854E",
"=	c #9F844D",
"-	c #B7945F",
";	c #B7935F",
">	c #AE8E55",
",	c #AE8E54",
"'	c #9E834D",
")	c #957441",
"!	c #806338",
"~	c #7F6338",
"{	c #69522D",
"]	c #69512D",
"^	c #68512D",
"/	c #7E6237",
"(	c #7F6337",
"_	c #69522E",
":	c #68512C",
"<	c #67502C",
"[	c #806438",
"}	c #967542",
"|	c #6A522E",
"1	c #C19C61",
"2	c #C09C61",
"3	c #C19D62",
"4	c #967541",
"5	c #AE8F55",
"6	c #B7945E",
"    ....    ++++++++++++++++++++    ++++++++++++++++++++    @###",
"    ....    ++++++++++++++++++++    ++++++++++++++++++++    @###",
"    ....    ++++++++++++++++++++    ++++++++++++++++++++    @###",
"    ....    ++++$$$$++++++++++++    ++++++++++++++++++++   %@###",
"        ........@@@@&&&*....            ........        *=======",
"        ........####====....            ........        ========",
"        ........####====....            ........        ========",
"        ........@##@===&....           -........        *=======",
"....            ....-   ....&==============&........       %@###",
"....            ....    ....================........        @###",
"....            ....    ....================........        @###",
"....%;;;;;;;   %....%;;%>>>,='''========'''=,>>>>>>>%%%%;;;%#)))",
"####!~~~~~~!#@@@####!~~~{]]]^^^]/((((((/]^^](~~({]]{{{{_~~~~^:::",
"####////////########////<<<<<<<<////////<<<<////<<<<<<<<////<<<<",
"####////////########////<<<<<<<<////////<<<<////<<<<<<<<////<<<<",
"@@@#[~~~(((~}@@@@@@}[~~~|{{{^^^]~~~~~~~~|{{|~~~~{]]]]]]{/((/_{{{",
"    1111====1$$$$$$$11111112=''=111111111111-;;%>>>>>>>,====%%%%",
"    ++++&==&++++++++++++++++&==&++++++++++++    ........====    ",
"    ++++&==&++++++++++++++++&==&++++++++++++    ........====    ",
"    +++3*==*$++++++++++++++1====1+++++++++++    ........&==*    ",
"....        ....*&&*....*&&=4##4=&&*........                ....",
"....        ....====....====####====........                ....",
"....        ....====....====####====........                ....",
"....-       ....&==&....&===####===&........               -....",
"=======&....    ...........>###@%           ........&===========",
"========....    ............###@            ........============",
"========....    ............###@            ........============",
"'''''''=,>>5%;;%....>>>>>>>,#))#%%%%%%%%;;;%5>>>>>>,========''''",
"^^^^^^^](~~~~~~!####~~~({]]]::::{{{{{{{_~~~~~~~~~~~~####~((/]^^^",
"<<<<<<<<////////####////<<<<<<<<<<<<<<<<////////////####////<<<<",
"<<<<<<<<////////####////<<<<<<<<<<<<<<<<////////////####////<<<<",
"{{{{{{{|~~~~~~~!####~~~(|{{{{{{{{{{{{{{|~~~~~~~~~~~[}@@}!~~~]^^^",
"%%%%11111111-;;%....>>>.1111111111111111111111111111$$$$-;;%='''",
"    ++++++++    ........++++++++++++++++++++++++++++++++    ====",
"    ++++++++    ........++++++++++++++++++++++++++++++++    ====",
"    ++++++++    ........3++++++++++++++++++++++++++++++3   6====",
"    ....                ....*&&&&&&&&&&*....*&&*....*&&&====4###",
"    ....                ....============....====....========####",
"    ....                ....============....====....========####",
"    ....               -....===========&....&==&....========4###",
"++++    ........&===============................&=======6  6====",
"++++    ........================................========    ====",
"++++    ........================................========    ====",
"1111%%%%>>>>...>========'''''''=,>>>>>>>....>>>,===='''=%%%%='''",
"{{{{{{{_(~~~########~((/]^^^^^^^]]]{(~~~####~~~~(((/]^^^{{{{^^^^",
"<<<<<<<<////########////<<<<<<<<<<<<////####////////<<<<<<<<<<<<",
"<<<<<<<<////########////<<<<<<<<<<<<////####////////<<<<<<<<<<<<",
"{{{{^^^]~~~!}@@@@@@}!~~~_{{{^^^^{{{|~~~[}@@}~(((~~~~_{{{{{{{{{{{",
"1112=''=%;;-$$$$$$$$-;;;%%%%=''=21111111$$$1====1111%%%%11111111",
"++++&===    ++++++++        ===&++++++++++++&==&++++    ++++++++",
"++++&===    ++++++++        ===&++++++++++++&==&++++    ++++++++",
"+++$*==&    +++++++3       -===&1++++++++++3*==*3+++    ++++++++",
"........        *&&&===&....====&&&*        ....    ............",
"........        ========....========        ....    ............",
"........        ========....========        ....    ............",
"........-       *======&....=======*        ....-  -............",
"....&======&....   -....&===4##@%       ....&===================",
"....========....    ....====###@        ....====================",
"....========....    ....====###@        ....====================",
">>>,========,>>>%%%%>>>,====###@%   ;;;%>>>,====''''''''''''''''",
"]]]{/((((((/{]]{{{{_(~~~########@@@#!~~~{]]{/((/]^^^^^^^^^^^^^^^",
"<<<<////////<<<<<<<<////############////<<<<////<<<<<<<<<<<<<<<<",
"<<<<////////<<<<<<<<////############////<<<<////<<<<<<<<<<<<<<<<",
"<<<<////////<<<<<<<<////############////<<<<////<<<<<<<<<<<<<<<<"};
